<svg width="225" height="31" viewBox="0 0 225 31" fill="none" xmlns="http://www.w3.org/2000/svg">
<path d="M19.66 27.9H21.856V29.16H0.688V27.9H3.46V2.988H0.688V1.692H21.892V2.988H19.66V27.9ZM9.976 27.9H13.36V2.988H9.976V27.9ZM23.188 29.196V28.08H24.412C25.096 28.08 25.168 27.576 25.168 27.252V1.872H23.188V0.755999H33.664V1.872H31.792V10.08H36.544V11.556H31.792V27.288C31.792 27.972 32.26 28.08 32.764 28.08H33.916V29.196H23.188ZM38.236 1.656H56.704V5.184C56.704 8.82 55.588 12.132 53.284 14.328C49.684 17.748 42.7 18.972 37.3 18.828V17.532C41.728 17.64 46.084 16.236 48.244 12.528C48.676 11.808 49 10.764 49.252 9.216H38.236V7.884H49.432C49.576 6.588 49.648 4.968 49.648 2.988H38.236V1.656ZM39.1 28.728C39.928 28.764 41.08 28.8 41.836 28.764C47.092 28.548 51.16 26.604 51.16 20.952V20.124H48.964V19.08H58.432V20.592C58.432 25.416 58.792 28.836 63.832 28.836C65.02 28.836 66.388 28.44 66.1 26.676C65.956 25.776 66.352 23.904 68.404 23.904C70.132 23.904 70.744 24.804 70.78 26.388C70.816 27.9 69.448 30.096 64.444 30.132C59.764 30.132 55.984 28.116 54.508 24.336C53.14 28.656 47.164 30.132 41.836 30.168C41.008 30.168 39.856 30.168 39.1 30.096V28.728ZM59.692 1.872V0.755999H70.168V1.872H68.296V19.116H61.672V1.872H59.692Z" fill="white"/>
<path d="M102.761 20.16V27.936H116.045V29.268H82.8532V27.936H96.1372V20.16H85.3732V2.7H84.0052V1.656H113.345V20.16H102.761ZM92.8252 18.828H105.893V2.988H92.8252V18.828ZM118.781 1.62H126.953V6.588H132.641V1.62H139.049V15.624H120.437V2.664H118.781V1.62ZM122.201 19.656V18.324H150.245V23.292C148.769 22.788 146.969 23.076 146.321 24.66H129.293V28.08C129.293 28.368 129.365 28.8 129.977 28.8H145.745C147.149 28.8 147.041 28.08 146.861 26.964C146.717 26.064 147.185 24.372 149.093 24.372C151.001 24.372 151.541 25.236 151.577 26.64C151.613 28.152 150.821 30.132 146.393 30.132H124.397C122.993 30.132 122.309 29.52 122.309 28.116V23.328H143.261V19.656H122.201ZM126.953 14.22H132.641V8.1H126.953V14.22ZM141.641 1.872V0.755999H152.117V1.872H150.245V16.524H143.621V1.872H141.641ZM177.389 0.755999H187.865V1.872H185.993V27.288C185.993 27.972 186.461 28.08 186.965 28.08H188.117V29.196H177.389V28.08H178.613C179.297 28.08 179.369 27.576 179.369 27.252V24.588C175.193 25.848 165.869 28.26 159.353 28.296C157.301 28.296 156.617 27.108 156.617 25.236V10.764H166.013V2.988H156.473V1.656H173.033V12.096H163.637V25.38C163.637 25.848 163.925 26.316 164.537 26.28C168.029 26.172 176.309 23.976 179.369 23.076V1.872H177.389V0.755999ZM191.213 1.656H210.365V2.988H200.285V10.26H209.933V11.592H200.285V25.452C200.285 25.92 200.573 26.352 201.185 26.352C204.461 26.352 211.769 24.444 215.369 23.4V1.872H213.389V0.755999H223.865V1.872H221.993V27.288C221.993 27.972 222.461 28.08 222.965 28.08H224.117V29.196H213.389V28.08H214.613C215.297 28.08 215.369 27.576 215.369 27.252V24.948C211.445 26.136 202.661 28.26 196.001 28.296C193.949 28.296 193.265 27.108 193.265 25.236V2.7H191.213V1.656Z" fill="black"/>
</svg>
