<svg width="199" height="27" viewBox="0 0 199 27" fill="none" xmlns="http://www.w3.org/2000/svg">
<path d="M20.056 0.671999H29.368V1.664H27.704V8.96H31.928V10.272H27.704V24.256C27.704 24.5547 27.7893 24.7467 27.96 24.832C28.1307 24.9173 28.3333 24.96 28.568 24.96H29.592V25.952H20.056V24.96H21.144C21.4427 24.96 21.624 24.8747 21.688 24.704C21.7733 24.5333 21.816 24.3733 21.816 24.224V1.664H20.056V0.671999ZM16.92 24.8H18.872V25.92H0.056V24.8H2.52V2.656H0.056V1.504H18.904V2.656H16.92V24.8ZM8.312 24.8H11.32V2.656H8.312V24.8ZM52.504 0.671999H61.816V1.664H60.152V16.992H54.264V1.664H52.504V0.671999ZM33.432 1.472H49.848V4.608C49.848 6.22933 49.592 7.744 49.08 9.152C48.5893 10.56 47.832 11.7547 46.808 12.736C46.0187 13.504 45.0587 14.1547 43.928 14.688C42.7973 15.2 41.592 15.616 40.312 15.936C39.032 16.256 37.72 16.48 36.376 16.608C35.0533 16.7147 33.7947 16.7573 32.6 16.736V15.584C33.5813 15.6053 34.552 15.5413 35.512 15.392C36.472 15.2427 37.368 14.9973 38.2 14.656C39.0533 14.2933 39.832 13.824 40.536 13.248C41.2613 12.672 41.8587 11.968 42.328 11.136C42.712 10.496 43.0107 9.51467 43.224 8.192H33.432V7.008H43.384C43.512 5.856 43.576 4.40533 43.576 2.656H33.432V1.472ZM42.968 16.96H51.384V18.304C51.384 19.3707 51.4267 20.352 51.512 21.248C51.5973 22.144 51.8 22.9227 52.12 23.584C52.44 24.224 52.92 24.7253 53.56 25.088C54.2 25.4507 55.0747 25.632 56.184 25.632C56.44 25.632 56.696 25.6 56.952 25.536C57.2293 25.4933 57.464 25.3973 57.656 25.248C57.8693 25.12 58.0293 24.928 58.136 24.672C58.2427 24.416 58.264 24.096 58.2 23.712C58.1787 23.52 58.1787 23.2853 58.2 23.008C58.2427 22.7093 58.3387 22.432 58.488 22.176C58.6373 21.92 58.8507 21.7067 59.128 21.536C59.4267 21.344 59.8 21.248 60.248 21.248C61.016 21.248 61.5493 21.44 61.848 21.824C62.168 22.208 62.3387 22.752 62.36 23.456C62.36 23.7973 62.2747 24.16 62.104 24.544C61.9547 24.928 61.656 25.28 61.208 25.6C60.7813 25.9413 60.2053 26.2187 59.48 26.432C58.7547 26.6667 57.8373 26.784 56.728 26.784C54.6373 26.784 52.8027 26.3467 51.224 25.472C49.6667 24.5973 48.5573 23.3173 47.896 21.632C47.5973 22.592 47.064 23.4027 46.296 24.064C45.528 24.7253 44.6213 25.2587 43.576 25.664C42.552 26.0693 41.432 26.3573 40.216 26.528C39.0213 26.72 37.8267 26.816 36.632 26.816C36.2693 26.816 35.8533 26.816 35.384 26.816C34.936 26.816 34.5413 26.7947 34.2 26.752V25.536C34.5627 25.5573 34.968 25.568 35.416 25.568C35.8853 25.5893 36.2907 25.5893 36.632 25.568C37.8053 25.5253 38.8933 25.376 39.896 25.12C40.8987 24.864 41.7733 24.4693 42.52 23.936C43.2667 23.3813 43.8533 22.6773 44.28 21.824C44.7067 20.9493 44.92 19.8827 44.92 18.624V17.888H42.968V16.96Z" fill="#0080FF"/>
<path d="M90.7878 17.92V24.832H102.596V26.016H73.0918V24.832H84.8998V17.92H75.3318V2.4H74.1158V1.472H100.196V17.92H90.7878ZM81.9558 16.736H93.5718V2.656H81.9558V16.736ZM125.348 0.671999H134.66V1.664H132.996V14.688H127.108V1.664H125.348V0.671999ZM105.028 1.44H112.292V5.856H117.348V1.44H123.044V13.888H106.5V2.368H105.028V1.44ZM117.348 12.64V7.2H112.292V12.64H117.348ZM131.972 21.664C132.825 21.664 133.401 21.8453 133.7 22.208C133.998 22.5707 134.158 23.0613 134.18 23.68C134.18 24.0213 134.126 24.3733 134.02 24.736C133.913 25.0987 133.689 25.4293 133.348 25.728C133.028 26.048 132.558 26.304 131.94 26.496C131.342 26.688 130.553 26.784 129.572 26.784H110.02C108.782 26.784 108.164 26.1867 108.164 24.992V20.736H126.788V17.472H108.068V16.288H132.996V20.704C132.612 20.576 132.217 20.512 131.812 20.512C131.321 20.512 130.862 20.6293 130.436 20.864C130.03 21.0773 129.721 21.4293 129.508 21.92H114.372V24.96C114.372 25.088 114.404 25.2267 114.468 25.376C114.532 25.5253 114.702 25.6 114.98 25.6H128.996C129.614 25.6 129.956 25.4507 130.02 25.152C130.084 24.8533 130.073 24.4587 129.988 23.968C129.966 23.776 129.977 23.552 130.02 23.296C130.062 23.0187 130.158 22.7627 130.308 22.528C130.457 22.272 130.66 22.0693 130.916 21.92C131.193 21.7493 131.545 21.664 131.972 21.664ZM157.124 0.671999H166.436V1.664H164.772V24.256C164.772 24.5547 164.857 24.7467 165.028 24.832C165.198 24.9173 165.401 24.96 165.636 24.96H166.66V25.952H157.124V24.96H158.212C158.51 24.96 158.692 24.8747 158.756 24.704C158.841 24.5333 158.884 24.3733 158.884 24.224V21.856C157.966 22.1333 156.793 22.464 155.364 22.848C153.934 23.2107 152.398 23.5627 150.756 23.904C149.134 24.2453 147.481 24.5333 145.796 24.768C144.11 25.024 142.542 25.152 141.092 25.152C140.174 25.152 139.534 24.9067 139.172 24.416C138.83 23.9253 138.66 23.264 138.66 22.432V9.568H147.012V2.656H138.532V1.472H153.252V10.752H144.9V22.56C144.9 22.7733 144.964 22.9653 145.092 23.136C145.22 23.3067 145.422 23.3813 145.7 23.36C146.212 23.3387 146.83 23.2747 147.556 23.168C148.281 23.0613 149.06 22.9227 149.892 22.752C150.724 22.5813 151.566 22.4 152.42 22.208C153.294 21.9947 154.137 21.792 154.948 21.6C155.758 21.3867 156.505 21.184 157.188 20.992C157.87 20.8 158.436 20.64 158.884 20.512V1.664H157.124V0.671999ZM169.412 1.472H186.436V2.656H177.476V9.12H186.052V10.304H177.476V22.624C177.476 22.8373 177.54 23.0293 177.668 23.2C177.796 23.3493 177.998 23.424 178.276 23.424C179.001 23.424 179.918 23.3387 181.028 23.168C182.137 22.976 183.289 22.7413 184.484 22.464C185.678 22.1867 186.841 21.8987 187.972 21.6C189.124 21.3013 190.094 21.0347 190.884 20.8V1.664H189.124V0.671999H198.436V1.664H196.772V24.256C196.772 24.5547 196.857 24.7467 197.028 24.832C197.198 24.9173 197.401 24.96 197.636 24.96H198.66V25.952H189.124V24.96H190.212C190.51 24.96 190.692 24.8747 190.756 24.704C190.841 24.5333 190.884 24.3733 190.884 24.224V22.176C190.009 22.432 188.9 22.7307 187.556 23.072C186.212 23.4133 184.75 23.7333 183.172 24.032C181.614 24.352 180.004 24.6187 178.34 24.832C176.697 25.0453 175.14 25.152 173.668 25.152C172.75 25.152 172.11 24.9067 171.748 24.416C171.406 23.9253 171.236 23.264 171.236 22.432V2.4H169.412V1.472Z" fill="black"/>
</svg>
