<svg width="22" height="22" viewBox="0 0 22 22" fill="none" xmlns="http://www.w3.org/2000/svg">
<path d="M11 19.25C15.5563 19.25 19.25 15.5563 19.25 11C19.25 6.44365 15.5563 2.75 11 2.75C6.44365 2.75 2.75 6.44365 2.75 11C2.75 15.5563 6.44365 19.25 11 19.25Z" stroke="#959595" stroke-width="2" stroke-linecap="round" stroke-linejoin="round"/>
<path d="M9.1665 8.06602C9.1665 7.62841 9.33541 7.20872 9.63607 6.89929C9.93673 6.58985 10.3445 6.41602 10.7697 6.41602H11.2278C11.653 6.41602 12.0607 6.58985 12.3614 6.89929C12.6621 7.20872 12.831 7.62841 12.831 8.06602C12.8478 8.42311 12.7676 8.77711 12.6024 9.0747C12.4371 9.3723 12.1959 9.59737 11.9148 9.71602C11.6338 9.87421 11.3926 10.1743 11.2273 10.5711C11.0621 10.9679 10.9819 11.4399 10.9987 11.916" stroke="#959595" stroke-width="2" stroke-linecap="round" stroke-linejoin="round"/>
<path d="M11 14.666V14.6752" stroke="#959595" stroke-width="2" stroke-linecap="round" stroke-linejoin="round"/>
</svg>
